<svg width="35" height="36" viewBox="0 0 35 36" fill="none" xmlns="http://www.w3.org/2000/svg">
<path d="M8.13411 21.4844L13.119 21.522C13.7272 21.5266 14.2456 21.9616 14.3557 22.5598L15.2584 27.4624C15.3548 27.9861 15.0036 28.4888 14.4785 28.5788L8.31118 29.6365C7.73128 29.7359 7.20219 29.2919 7.19942 28.7036L7.17005 22.4463C7.16755 21.9135 7.60162 21.4804 8.13411 21.4844Z" fill="#30323B"/>
<path d="M14.507 7.28838L26.4845 6.31507C27 6.27318 27.4536 6.64986 27.5072 7.16427L28.7861 19.4585C28.8475 20.0488 28.3608 20.5531 27.769 20.5124L4.81347 18.9345C4.29545 18.8989 4.03827 18.2904 4.37278 17.8917L12.3221 8.41823C12.8707 7.76442 13.6578 7.35739 14.507 7.28838Z" fill="#30323B"/>
<path d="M19.4911 30.9883L26.0306 23.1948C26.3703 22.7899 26.0992 22.1726 25.5722 22.1511L17.6809 21.8289C17.056 21.8034 16.5742 22.3766 16.7068 22.9878L18.3834 30.7171C18.4953 31.233 19.151 31.3935 19.4911 30.9883Z" fill="#30323B"/>
</svg>
